<svg width="50" height="50" viewBox="0 0 50 50" fill="none" xmlns="http://www.w3.org/2000/svg">
<rect x="2" y="2" width="46" height="46" rx="12" fill="#FEFCFD" stroke="#F0A65B" stroke-width="4"/>
<path d="M41 16.2784V34.818C41 36.023 40.0545 36.9987 38.8868 36.9987H33.954V24.6398L25.5 31.1845L17.046 24.6398V37H12.1132C11.8356 37 11.5607 36.9436 11.3042 36.8339C11.0477 36.7242 10.8147 36.5635 10.6185 36.3608C10.4222 36.1582 10.2666 35.9176 10.1605 35.6529C10.0544 35.3882 9.99983 35.1045 10 34.818V16.2784C10 13.5819 12.9825 12.0423 15.0724 13.6605L17.046 15.1894L25.5 21.7314L33.954 15.1867L35.9276 13.6605C38.0162 12.0437 41 13.5819 41 16.2784Z" fill="#F0A65B"/>
</svg>
