<svg width="91" height="105" viewBox="0 0 91 105" fill="none" xmlns="http://www.w3.org/2000/svg">
<path d="M58.8903 -2.693e-06L51.9614 10.3507L62.3553 17.2508L69.2841 6.90006L58.8903 -2.693e-06Z" fill="#F0A65B"/>
<path d="M55.003 87.6522C55.6855 87.4057 56.3196 87.0259 56.8565 86.5015C58.0275 85.356 58.5747 83.7711 58.3582 82.1494L55.4276 60.2619V44.7117L68.2088 40.1664C69.8128 39.5953 70.9994 38.205 71.3042 36.5355L73.2475 25.8876L89.1396 35.9578L90.9998 33.0463L73.8069 22.1518C73.767 21.0357 73.3617 19.9542 72.6274 19.078C71.6556 17.9189 70.2285 17.2532 68.7113 17.2532C68.0044 17.2532 67.3378 17.4067 66.7244 17.6621L52.8934 8.89783L51.0333 11.8097L64.1386 20.1136C63.9202 20.5636 63.7506 21.0434 63.6693 21.5608L62.0619 31.9637L51.8943 35.3911C49.9975 33.7178 47.5554 32.7777 45.0349 32.7777C42.8038 32.7777 40.658 33.4985 38.7631 34.9131L38.2281 35.3546C38.098 35.4669 35.2609 38.0335 32.9104 40.1601V34.6871C32.9104 32.0722 31.0465 29.7988 28.5748 29.3985C27.0524 29.1482 25.5123 29.5762 24.3502 30.5609C23.1843 31.546 22.5177 32.9826 22.5177 34.5024V48.5656C22.5177 52.224 25.5075 55.2014 29.1812 55.2014C30.8318 55.2014 32.4152 54.596 33.638 53.4972L34.6427 52.5986V60.2626L31.7294 82.0239C31.3968 84.5078 32.8243 86.8486 35.0706 87.6508C32.3077 88.4268 29.618 89.5172 27.0735 90.9541L7.50244 101.999L9.21034 105L28.7814 93.9554C38.8086 88.2995 51.2661 88.2977 61.2914 93.9554L80.8625 105L82.5704 101.999L62.9993 90.9541C60.4537 89.5186 57.764 88.4287 55.003 87.6522ZM31.3196 50.9339C30.7324 51.4616 29.972 51.7515 29.1805 51.7515C27.4171 51.7515 25.9812 50.3216 25.9812 48.5656V34.5024C25.9812 33.9953 26.2029 33.5158 26.5928 33.188C26.9878 32.8549 27.4918 32.7206 28.0183 32.8016C28.8187 32.9326 29.4458 33.7605 29.4458 34.6867V47.9565L32.3421 45.3347C32.3421 45.3347 40.2057 38.2175 40.4692 37.985L40.9041 37.6243C43.7553 35.4992 47.7963 35.9268 50.152 38.523L50.9139 39.3631L65.164 34.5591L67.0902 22.0845C67.0954 22.055 67.1128 22.0326 67.118 22.0035L70.0903 23.8872L67.8939 35.9184C67.809 36.3773 67.4834 36.76 67.0418 36.9171L51.963 42.2819V60.3763L54.9232 82.6054C54.9941 83.14 54.8142 83.6626 54.4277 84.0405C54.2026 84.2631 53.709 84.6219 52.9518 84.5027C52.2364 84.3941 51.6389 83.7229 51.5299 82.9053L48.2822 58.6512H41.785L38.5182 83.0536C38.4524 83.54 38.1804 83.9728 37.768 84.2436C37.3505 84.5196 36.8398 84.5939 36.3288 84.4559C35.5546 84.2421 35.0399 83.3763 35.1596 82.481L38.0888 60.6037L38.1061 44.8519L31.3196 50.9339ZM40.3613 86.5623C41.2186 85.7568 41.7954 84.6907 41.9532 83.511L44.818 62.1014H45.2493L48.0967 83.3627C48.2664 84.6271 48.8727 85.7446 49.7404 86.5674C46.6283 86.1671 43.4741 86.1656 40.3613 86.5623Z" fill="#384550"/>
<path d="M55.4274 22.4282C55.4274 16.7204 50.7663 12.0787 45.0347 12.0787C39.3032 12.0787 34.6421 16.7204 34.6421 22.4282C34.6421 28.1359 39.3032 32.7777 45.0347 32.7777C50.7663 32.7777 55.4274 28.1359 55.4274 22.4282ZM45.0347 29.3278C41.2136 29.3278 38.1063 26.2335 38.1063 22.4282C38.1063 18.6229 41.2136 15.5285 45.0347 15.5285C48.8559 15.5285 51.9632 18.6229 51.9632 22.4282C51.9632 26.2335 48.8559 29.3278 45.0347 29.3278Z" fill="#384550"/>
<path d="M86.6052 46.577H83.141V50.0268H79.6768V53.4766H83.141V56.9265H86.6052V53.4766H90.0694V50.0268H86.6052V46.577Z" fill="#384550"/>
<path d="M72.7484 63.8261V62.101H74.4807V58.6512H72.7484V56.9265H69.2842V58.6512H67.5522V62.101H69.2842V63.8261H72.7484Z" fill="#384550"/>
<path d="M83.1413 62.101H79.6771V65.5508H76.2129V69.0007H79.6771V72.4505H83.1413V69.0007H86.6055V65.5508H83.1413V62.101Z" fill="#384550"/>
<path d="M19.0531 15.5285H22.5173V12.0787H25.9815V8.62885H22.5173V5.17902H19.0531V8.62885H15.5889V12.0787H19.0531V15.5285Z" fill="#384550"/>
<path d="M5.19614 10.3536V8.62885H6.92843V5.17902H5.19614V3.45392H1.73192V5.17902H0V8.62885H1.73192V10.3536H5.19614Z" fill="#384550"/>
<path d="M10.3928 25.878V22.4282H13.857V18.9783H10.3928V15.5285H6.92857V18.9783H3.46436V22.4282H6.92857V25.878H10.3928Z" fill="#384550"/>
</svg>
