<svg width="58" height="53" viewBox="0 0 58 53" fill="none" xmlns="http://www.w3.org/2000/svg">
<path d="M49.9238 32.0945C50.1607 34.4751 49.4636 36.8052 47.9636 38.6579L42.5956 45.2848C41.0956 47.1375 38.9715 48.2884 36.6186 48.5244C35.8799 48.5982 35.1466 48.5816 34.4304 48.4747C33.0785 48.2739 31.7997 47.7378 30.6649 46.9325L28.4097 49.7167C26.4467 52.1414 23.3196 53.3627 20.2513 52.9053C18.6713 52.67 17.1788 52.0027 15.9375 50.976L9.37953 45.5497C7.54697 44.0345 6.40811 41.8885 6.17255 39.508C5.93768 37.1282 6.63547 34.7966 8.13552 32.9467L11.1397 29.2344C11.3534 28.9702 11.6627 28.8025 11.9986 28.7687C12.3332 28.7342 12.6705 28.8377 12.9306 29.053L27.7966 41.3496C27.8887 41.3931 27.9809 41.4456 28.0635 41.5139L31.7362 44.5506C33.043 45.6312 34.6857 46.1342 36.3633 45.9644C38.0422 45.794 39.5559 44.9736 40.6245 43.655L45.9931 37.0274C48.1998 34.3026 47.7997 30.2729 45.1048 28.0428L41.2908 25.053C39.5068 27.0057 37.3731 28.0807 34.9329 28.2457C30.2265 28.5637 25.6902 25.3545 23.6112 23.6233C20.6227 27.9593 17.0982 28.0524 16.9371 28.0545C16.8688 28.0552 16.8026 28.0504 16.7371 28.04C16.5903 28.0186 16.4476 27.971 16.3172 27.9006C15.0076 27.1851 14.2381 26.3005 13.965 25.193C13.5984 23.7095 14.1453 21.9645 15.7416 19.5384C19.7078 13.5008 24.3759 13.5395 27.1657 13.5622C27.8048 13.5671 28.3578 13.5726 28.7777 13.5105C30.6253 13.24 31.4234 11.3176 31.4316 11.2969C31.6904 10.6373 32.4305 10.3157 33.0826 10.5724C33.736 10.8339 34.0583 11.5812 33.7988 12.2422C33.7476 12.3768 32.466 15.5688 29.1437 16.0552C28.5319 16.1449 27.858 16.1394 27.1445 16.1339C24.436 16.1111 21.0651 16.0835 17.8602 20.9605C16.4681 23.0789 16.3158 24.0932 16.4346 24.5693C16.4824 24.7694 16.6196 25.0654 17.2 25.4414C17.9975 25.2883 20.2724 24.5506 22.2156 21.0268C22.4088 20.6769 22.7529 20.4382 23.1449 20.3809C23.5368 20.3236 23.9355 20.4534 24.2182 20.7342C24.2714 20.7873 29.6353 26.0273 34.7697 25.6774C36.8119 25.5367 38.5188 24.5389 39.9902 22.6269C40.3343 22.1818 40.9092 22.0321 41.409 22.2067C41.6691 22.2143 41.9306 22.2978 42.1518 22.4716L46.6909 26.0293C48.5501 27.5688 49.6889 29.714 49.9238 32.0945ZM28.6391 45.3724L12.3018 31.8599L10.1026 34.5772C9.03336 35.8958 8.53835 37.5567 8.70495 39.2527C8.87291 40.9501 9.68541 42.4806 10.9909 43.5597L17.5489 48.986C18.4344 49.7188 19.4975 50.1942 20.6213 50.3619C22.8444 50.6924 25.0177 49.843 26.4392 48.0897L28.6391 45.3724Z" fill="#384550"/>
<path d="M3.70417 23.2313C5.51761 24.73 8.18997 24.4596 9.67431 22.6276L20.8854 8.77976C22.3697 6.94709 22.1028 4.2457 20.2893 2.74631L18.14 0.969528C16.3265 -0.529866 13.6542 -0.260761 12.1712 1.57329L0.958748 15.4197C-0.524229 17.2538 -0.257266 19.9545 1.55481 21.4539L3.70417 23.2313Z" fill="#F0A65B"/>
<path d="M43.1478 1.16963L56.5342 12.8791C58.306 14.4289 58.4985 17.1365 56.9644 18.9277L55.1482 21.0495C53.6147 22.8394 50.9341 23.0347 49.163 21.4849L35.7773 9.77545C34.0048 8.22568 33.813 5.51877 35.3451 3.72819L37.164 1.60503C38.6961 -0.18486 41.3767 -0.380823 43.1478 1.16963Z" fill="#F0A65B"/>
</svg>
