<svg width="97" height="98" viewBox="0 0 97 98" fill="none" xmlns="http://www.w3.org/2000/svg">
<path d="M75.9166 26.733C75.6432 26.687 75.3241 26.687 75.0506 26.733C68.7606 26.5031 63.7468 21.3057 63.7468 14.8665C63.7468 8.28934 68.9885 3 75.5064 3C82.0243 3 87.266 8.33533 87.266 14.8665C87.2205 21.3057 82.2067 26.5031 75.9166 26.733Z" stroke="#384550" stroke-width="5" stroke-linecap="round" stroke-linejoin="round"/>
<path d="M71.2215 60.2168C77.4659 61.2747 84.3485 60.1709 89.1799 56.9053C95.6067 52.5818 95.6067 45.4987 89.1799 41.1752C84.3029 37.9098 77.3292 36.8059 71.0847 37.9098" stroke="#384550" stroke-width="5" stroke-linecap="round" stroke-linejoin="round"/>
<path d="M21.084 26.733C21.3575 26.687 21.6765 26.687 21.95 26.733C28.24 26.5031 33.2538 21.3057 33.2538 14.8665C33.2538 8.28934 28.0121 3 21.4942 3C14.9763 3 9.73462 8.33533 9.73462 14.8665C9.7802 21.3057 14.794 26.5031 21.084 26.733Z" stroke="#384550" stroke-width="5" stroke-linecap="round" stroke-linejoin="round"/>
<path d="M25.7785 60.2168C19.5341 61.2747 12.6515 60.1709 7.82007 56.9053C1.39331 52.5818 1.39331 45.4987 7.82007 41.1752C12.6971 37.9098 19.6708 36.8059 25.9153 37.9098" stroke="#384550" stroke-width="5" stroke-linecap="round" stroke-linejoin="round"/>
<path d="M48.5687 61.0907C48.2952 61.0447 47.9761 61.0447 47.7027 61.0907C41.4127 60.8608 36.3987 55.6634 36.3987 49.2242C36.3987 42.647 41.6405 37.3576 48.1585 37.3576C54.6764 37.3576 59.9181 42.693 59.9181 49.2242C59.8725 55.6634 54.8587 60.9068 48.5687 61.0907Z" stroke="#384550" stroke-width="5" stroke-linecap="round" stroke-linejoin="round"/>
<path d="M35.3049 75.5789C28.8782 79.9024 28.8782 86.9855 35.3049 91.309C42.5978 96.2303 54.5398 96.2303 61.8325 91.309C68.2593 86.9855 68.2593 79.9024 61.8325 75.5789C54.5853 70.7035 42.5978 70.7035 35.3049 75.5789Z" stroke="#384550" stroke-width="5" stroke-linecap="round" stroke-linejoin="round"/>
</svg>
