<svg width="91" height="99" viewBox="0 0 91 99" fill="none" xmlns="http://www.w3.org/2000/svg">
<path d="M91 21.6562V0H59.9773V34.0312H53.7728V52.5938H26.8864V71.1562H0V99H83.7612V34.0312H63.0796V21.6562H91ZM63.0796 3.09375H87.8977V18.5625H63.0796V3.09375ZM29.9887 55.6875H53.7728V60.8438H29.9887V55.6875ZM3.10227 74.25H26.8864V79.4063H3.10227V74.25ZM80.659 95.9062H3.10227V82.5001H26.8864V89.2033H29.9887V63.9376H53.7728V74.7657H56.875V45.3751H80.6592V95.9062H80.659ZM80.659 37.125V42.2813H56.875V37.125H80.659Z" fill="#384550"/>
<path d="M83.2442 6.1875H76.0056V9.28125H83.2442V6.1875Z" fill="#384550"/>
<path d="M83.2443 12.375H67.7329V15.4688H83.2443V12.375Z" fill="#384550"/>
<path d="M33.6079 11.3438V14.4376H42.2722L3.55664 53.0466L5.75014 55.2346L44.4659 16.6252V23.2031H47.5681V11.3438H33.6079Z" fill="#384550"/>
<path d="M9.82379 85.5938H5.6875V88.6876H9.82379V85.5938Z" fill="#384550"/>
<path d="M24.3008 85.5938H20.1646V88.6876H24.3008V85.5938Z" fill="#384550"/>
<path d="M36.71 67.0313H32.5737V70.1251H36.71V67.0313Z" fill="#384550"/>
<path d="M51.1876 67.0313H47.0513V70.1251H51.1876V67.0313Z" fill="#384550"/>
<path d="M63.5963 48.4688H59.46V51.5626H63.5963V48.4688Z" fill="#384550"/>
<path d="M78.0738 48.4688H73.9375V51.5626H78.0738V48.4688Z" fill="#384550"/>
</svg>
