<svg width="50" height="50" viewBox="0 0 50 50" fill="none" xmlns="http://www.w3.org/2000/svg">
<path fill-rule="evenodd" clip-rule="evenodd" d="M14.6741 0.306823C10.6044 0.490448 7.07703 1.48544 4.22873 4.32172C1.37049 7.17289 0.387854 10.7143 0.203771 14.7416C0.089341 17.2553 -0.579785 36.2458 1.36054 41.226C2.66902 44.5859 5.2461 47.1692 8.63669 48.4819C10.2188 49.0973 12.0249 49.5138 14.6741 49.6354C36.8262 50.6379 45.0377 50.0922 48.5004 41.226C49.1149 39.6478 49.5378 37.8434 49.6547 35.2006C50.6671 12.9918 49.4906 8.17787 45.6298 4.32172C42.5676 1.26707 38.9655 -0.812302 14.6741 0.306823ZM14.8781 45.1689C12.4527 45.0597 11.1367 44.6556 10.2586 44.3156C8.04964 43.457 6.39042 41.8047 5.53718 39.6086C4.05954 35.8244 4.54962 17.8513 4.68146 14.9431C4.81082 12.0944 5.38793 9.49085 7.39791 7.4809C9.88551 4.99945 13.0994 3.78331 34.9828 4.77094C37.8386 4.89996 40.4481 5.4759 42.4631 7.4809C44.9507 9.96232 46.1845 13.201 45.1795 35.0004C45.0701 37.4198 44.6646 38.7326 44.3238 39.6086C42.0725 45.3779 36.8933 46.1788 14.8781 45.1689ZM35.2241 11.7241C35.2241 13.3668 36.56 14.7026 38.2093 14.7026C39.8586 14.7026 41.1969 13.3668 41.1969 11.7241C41.1969 10.0814 39.8586 8.74677 38.2093 8.74677C36.56 8.74677 35.2241 10.0814 35.2241 11.7241ZM12.1567 24.9699C12.1567 32.0073 17.8757 37.7128 24.9305 37.7128C31.9853 37.7128 37.7043 32.0073 37.7043 24.9699C37.7043 17.9326 31.9853 12.2307 24.9305 12.2307C17.8757 12.2307 12.1567 17.9326 12.1567 24.9699ZM16.6393 24.9699C16.6393 20.4041 20.3508 16.6996 24.9305 16.6996C29.5102 16.6996 33.2217 20.4041 33.2217 24.9699C33.2217 29.5382 29.5102 33.2438 24.9305 33.2438C20.3508 33.2438 16.6393 29.5382 16.6393 24.9699Z" fill="#F0A65B"/>
</svg>
