<svg width="45" height="45" viewBox="0 0 45 45" fill="none" xmlns="http://www.w3.org/2000/svg">
<path d="M17.8171 7.98229C17.2476 6.55856 15.8687 5.625 14.3353 5.625H9.17764C7.21556 5.625 5.625 7.21519 5.625 9.17724C5.625 25.8547 19.1452 39.375 35.8228 39.375C37.7848 39.375 39.375 37.7842 39.375 35.8222L39.3759 30.6638C39.3759 29.1302 38.4426 27.7517 37.0189 27.1821L32.0754 25.2054C30.7967 24.6939 29.3406 24.9242 28.2823 25.806L27.0066 26.8701C25.5167 28.1117 23.3243 28.0129 21.9529 26.6415L18.3604 23.0458C16.989 21.6742 16.8876 19.4837 18.1293 17.9938L19.1931 16.7181C20.0749 15.6599 20.3072 14.2034 19.7957 12.9245L17.8171 7.98229Z" stroke="#F0A65B" stroke-width="4" stroke-linecap="round" stroke-linejoin="round"/>
</svg>
