<svg width="91" height="91" viewBox="0 0 91 91" fill="none" xmlns="http://www.w3.org/2000/svg">
<path d="M84.4934 44.4698C84.3417 44.3182 84.1749 44.2121 83.9929 44.1363C83.7199 44.0151 83.4166 43.9832 83.1132 44.0454C83.0222 44.0772 82.9312 44.106 82.8402 44.1378C82.7492 44.1682 82.6582 44.2288 82.5672 44.2743C82.4914 44.3349 82.4156 44.3955 82.3397 44.4713C82.0667 44.7411 81.8999 45.1367 81.8999 45.5307C81.8999 45.7429 81.9454 45.9399 82.0212 46.1218C82.0971 46.3037 82.2032 46.4704 82.3397 46.6068C82.6279 46.8933 83.0071 47.0615 83.4166 47.0615C83.6137 47.0615 83.8109 47.0161 83.9929 46.9403C84.1749 46.8645 84.3417 46.7584 84.4934 46.6068C84.6299 46.4704 84.7361 46.3037 84.8119 46.1218C84.8877 45.9399 84.9332 45.7429 84.9332 45.5307C84.9332 45.1367 84.7664 44.7411 84.4934 44.4698Z" fill="#384550"/>
<path d="M90.5601 44.4697C90.1354 44.0453 89.4681 43.9089 88.9069 44.1363C88.7249 44.2121 88.5581 44.3182 88.4064 44.4697C88.1334 44.741 87.9666 45.1366 87.9666 45.5307C87.9666 45.7429 88.0121 45.9399 88.0879 46.1218C88.1637 46.3037 88.2699 46.4704 88.4064 46.6068C88.5581 46.7583 88.7249 46.8644 88.9069 46.9402C89.0889 47.016 89.2861 47.0615 89.4832 47.0615C89.6804 47.0615 89.8776 47.016 90.0596 46.9402C90.2416 46.8644 90.4084 46.7583 90.5601 46.6068C90.6966 46.4704 90.8027 46.3037 90.8786 46.1218C90.9696 45.9399 90.9999 45.7429 90.9999 45.5307C90.9999 45.1366 90.8331 44.741 90.5601 44.4697Z" fill="#384550"/>
<path d="M89.4833 59.1715H69.7667C68.9295 59.1715 68.25 59.8551 68.25 60.6932V62.2028H60.6667C59.9538 62.2028 59.3836 62.706 59.2213 63.3683L46.7876 60.4659C45.867 60.2522 44.9115 60.3295 44.0303 60.6856L32.1548 65.5357C30.62 66.1632 29.4976 67.4318 29.0411 68.9641L5.86647 61.9664C4.4772 61.545 3.00603 61.8027 1.83668 62.6696C0.66885 63.535 0 64.8658 0 66.3193V69.7052C0 71.2285 0.758333 72.6441 2.02627 73.4883L18.8749 84.7131C19.0251 84.8132 19.1919 84.8859 19.3693 84.9283L44.4596 90.8287C44.7947 90.9076 45.1375 90.947 45.4863 90.947C45.8488 90.947 46.2174 90.9045 46.5859 90.8166L59.4988 87.3867C59.7779 87.7353 60.1874 87.9687 60.6667 87.9687H68.25V89.4904C68.25 90.3286 68.9295 91 69.7667 91H89.4833C90.3205 91 91 90.3286 91 89.4904V60.6932C91 59.8551 90.3205 59.1715 89.4833 59.1715ZM59.15 84.3448L45.8473 87.8748C45.6198 87.9308 45.3772 87.9293 45.1512 87.8763L20.3309 82.0395L3.70825 70.9662C3.28662 70.6858 3.03333 70.213 3.03333 69.7052V66.3193C3.03333 65.8358 3.25628 65.3917 3.64607 65.1022C4.03433 64.8127 4.52422 64.7233 4.98983 64.8673L29.0715 72.1363C29.7661 74.287 31.7969 75.8436 34.1857 75.8436H45.5C46.3372 75.8436 47.0167 75.1661 47.0167 74.3279C47.0167 73.4898 46.3372 72.8123 45.5 72.8123H34.1857C32.898 72.8123 31.85 71.7786 31.85 70.5009C31.85 69.5491 32.4203 68.7004 33.303 68.3411L45.18 63.4911C45.4727 63.3714 45.7912 63.3471 46.0976 63.4168L59.15 66.4663V84.3448ZM68.25 84.9374H62.1833V65.2659V65.2341H68.25V84.9374ZM87.9667 87.9687H71.2833V86.4591V63.7245V62.2028H87.9667V87.9687Z" fill="#384550"/>
<path d="M81.8999 81.9061H77.3499C76.5127 81.9061 75.8333 82.5836 75.8333 83.4218C75.8333 84.2599 76.5127 84.9374 77.3499 84.9374H81.8999C82.7371 84.9374 83.4166 84.2599 83.4166 83.4218C83.4166 82.5836 82.7371 81.9061 81.8999 81.9061Z" fill="#384550"/>
<path d="M44.6234 0.0613929C44.6173 0.0613929 44.6112 0.0613929 44.6052 0.0613929C44.5521 0.0613929 43.3175 -0.140188 41.5051 0.187191C39.0481 0.675228 36.9217 1.17236 35.2064 2.08326C33.1134 3.15179 31.1129 4.53557 29.7949 5.80871C29.2868 6.23461 28.9062 6.65293 28.5998 6.98788C28.4769 7.12278 28.3677 7.24403 28.2434 7.36679C27.799 7.81542 27.5851 8.10794 27.5851 8.10794C27.0983 8.77937 27.2378 9.71907 27.9036 10.2162C28.1766 10.4208 28.4951 10.5178 28.8106 10.5178C29.2656 10.5178 29.7145 10.3132 30.0118 9.9252C30.0376 9.89186 30.1665 9.7312 30.3773 9.51749C30.5184 9.37957 30.6715 9.21436 30.8399 9.02946C31.0841 8.76119 31.3722 8.43987 31.8197 8.05944C32.992 6.9318 34.7726 5.70565 36.6063 4.76898C38.082 3.98236 39.9293 3.36701 42.0678 2.94112C43.5845 2.66678 44.6294 2.6486 44.6401 2.6486C45.4757 2.63496 46.1461 2.16965 46.134 1.33302C46.1264 0.505476 45.4515 0.0613929 44.6234 0.0613929Z" fill="#384550"/>
<path d="M53.3094 0.867689C53.3094 0.867689 52.8665 0.691875 52.3463 0.535764L51.5455 0.334183C50.7295 0.121993 49.9075 0.619124 49.7012 1.42848C49.4934 2.23935 49.9848 3.06386 50.7962 3.2715L51.5303 3.45641C51.8579 3.55493 52.1779 3.68072 52.1946 3.68679C52.3781 3.75954 52.5662 3.79288 52.7512 3.79288C53.3549 3.79288 53.9266 3.43064 54.1617 2.83499C54.4696 2.05595 54.0889 1.17537 53.3094 0.867689Z" fill="#384550"/>
<path d="M67.7995 22.5975C68.303 22.2883 68.6685 21.6532 68.6928 21.0621C68.6958 20.9894 68.7064 20.4544 68.6063 19.8269L68.5214 19.2161C68.4562 18.7826 68.3788 18.2309 68.256 17.6156C67.7797 15.5134 66.9168 13.2293 65.8869 11.3817C64.6615 9.16584 62.9992 7.28796 61.7495 6.04361L61.1261 5.47979C60.7348 5.12665 60.3996 4.82352 60.1039 4.59769L59.476 4.13239C58.8026 3.63222 57.8532 3.7747 57.3542 4.44916C56.8552 5.12059 56.9978 6.07089 57.6696 6.56803L58.2839 7.02272C58.5099 7.19247 58.7753 7.43649 59.0877 7.72143L59.6762 8.24584C60.7166 9.28709 62.1787 10.927 63.2343 12.8352C64.1291 14.4448 64.8814 16.4182 65.2879 18.2112C65.391 18.7341 65.4623 19.2024 65.5199 19.5965L65.6124 20.1846C65.6549 20.4528 65.661 20.906 65.661 20.9591C65.6412 21.6426 66.0811 22.4398 66.6999 22.7005C66.2494 22.937 65.9067 23.375 65.8687 23.9176C65.5866 27.9265 63.932 31.946 61.2035 35.241C59.884 36.843 58.3324 38.2056 56.6474 39.2605L55.3021 40.0274L53.9887 40.6427C53.9386 40.667 53.8901 40.6927 53.8431 40.7215C53.652 40.8367 53.0453 41.2778 53.0832 42.1811C53.0832 42.1902 53.0832 42.2008 53.0832 42.2099V44.015H48.5332H40.9499H39.4332H36.4287C37.2523 43.9984 37.9166 43.333 37.9166 42.5054V42.0629C37.9166 41.6158 37.7194 41.1914 37.3766 40.9034C37.1112 40.6806 36.8215 40.5503 36.5152 40.4123C36.406 40.3638 36.2862 40.3108 36.1148 40.2244C35.6188 39.9971 34.5769 39.4605 33.1649 38.4405C31.0901 36.943 28.3494 33.9951 26.8661 30.1939C25.3252 26.4032 25.1826 22.3656 25.5679 19.8117C25.715 18.6235 26.0001 17.6292 26.2291 16.8289L26.3065 16.5319C26.6235 15.7058 26.807 15.2481 26.8085 15.2436C27.1194 14.466 26.7403 13.5839 25.9622 13.2732C25.1796 12.9595 24.2999 13.343 23.9905 14.119C23.9905 14.119 23.8025 14.5903 23.4279 15.5846L23.3111 15.9953C23.0669 16.8471 22.7332 18.0157 22.5618 19.3979C21.9916 23.1689 22.5497 27.6324 24.0467 31.3139C25.5027 35.047 28.2478 38.6284 31.3873 40.8958C32.587 41.7613 33.814 42.5009 34.7953 42.9526C34.859 42.9844 34.9212 43.0132 34.9818 43.0435C35.1972 43.6088 35.7432 44.009 36.3832 44.0165C35.5536 44.0272 34.8832 44.7046 34.8832 45.5367V51.5993C34.8832 52.4375 35.5627 53.1089 36.3999 53.1089H39.4332V54.6306C39.4332 55.4687 40.1127 56.1462 40.9499 56.1462C41.7871 56.1462 42.4666 55.4687 42.4666 54.6306V53.1089H48.5332V54.6306C48.5332 55.4687 49.2127 56.1462 50.0499 56.1462C50.8871 56.1462 51.5666 55.4687 51.5666 54.6306V53.1089H54.5999C55.4371 53.1089 56.1166 52.4375 56.1166 51.5993V45.5367V42.992L58.2005 41.8643C60.2207 40.6018 62.0194 39.021 63.5437 37.1704C66.6695 33.3949 68.5684 28.7631 68.8945 24.1298C68.9445 23.4068 68.4668 22.7945 67.7995 22.5975ZM53.0832 50.0776H37.9166V47.0463H39.4332H40.9499H48.5332H53.0832V50.0776Z" fill="#384550"/>
<path d="M54.5651 16.6956C53.0529 16.6956 51.6515 17.1518 50.467 17.9172C49.2825 17.1518 47.8811 16.6956 46.369 16.6956C44.8326 16.6956 43.4039 17.1624 42.2088 17.9505C41.0121 17.1624 39.5849 16.6956 38.0486 16.6956C33.8686 16.6956 30.4683 20.0936 30.4683 24.2707C30.4683 25.1089 31.1477 25.7864 31.9849 25.7864C32.8221 25.7864 33.5016 25.1089 33.5016 24.2707C33.5016 21.7654 35.5415 19.7268 38.0486 19.7268C38.7523 19.7268 39.4105 19.9011 40.0051 20.1861C39.2437 21.3668 38.7887 22.7642 38.7887 24.2707C38.7887 25.1089 39.4682 25.7864 40.3054 25.7864C41.1426 25.7864 41.822 25.1089 41.822 24.2707C41.822 23.6236 41.9631 23.0097 42.2088 22.4505C42.4545 23.0082 42.5955 23.622 42.5955 24.2707C42.5955 25.1089 43.275 25.7864 44.1122 25.7864C44.9494 25.7864 45.6289 25.1089 45.6289 24.2707C45.6289 22.7642 45.1739 21.3668 44.4125 20.1861C45.007 19.8996 45.6653 19.7268 46.369 19.7268C47.0333 19.7268 47.6597 19.8769 48.2284 20.1346C47.4473 21.3258 46.9848 22.743 46.9848 24.2707C46.9848 25.1089 47.6642 25.7864 48.5014 25.7864C49.3386 25.7864 50.0181 25.1089 50.0181 24.2707C50.0181 23.5766 50.188 22.9249 50.467 22.3353C50.7476 22.9249 50.916 23.5751 50.916 24.2707C50.916 25.1089 51.5954 25.7864 52.4326 25.7864C53.2698 25.7864 53.9493 25.1089 53.9493 24.2707C53.9493 22.743 53.4867 21.3258 52.7056 20.1346C53.2744 19.8784 53.9008 19.7268 54.5651 19.7268C57.0721 19.7268 59.112 21.7639 59.112 24.2707C59.112 25.1089 59.7915 25.7864 60.6287 25.7864C61.4659 25.7864 62.1454 25.1089 62.1454 24.2707C62.1454 20.0936 58.745 16.6956 54.5651 16.6956Z" fill="#384550"/>
<path d="M72.3601 44.4697C71.9354 44.0453 71.2681 43.9089 70.7069 44.1363C70.5249 44.2121 70.3581 44.3182 70.2064 44.4697C69.9334 44.741 69.7666 45.1366 69.7666 45.5307C69.7666 45.7429 69.8121 45.9399 69.8879 46.1218C69.9638 46.3037 70.0699 46.4704 70.2064 46.6068C70.3581 46.7583 70.5249 46.8644 70.7069 46.9402C70.8889 47.016 71.0861 47.0615 71.2833 47.0615C71.6776 47.0615 72.0719 46.8948 72.3601 46.6068C72.4966 46.4704 72.6028 46.3037 72.6786 46.1218C72.7696 45.9399 72.7999 45.7429 72.7999 45.5307C72.7999 45.1366 72.6331 44.741 72.3601 44.4697Z" fill="#384550"/>
<path d="M78.4268 44.4698C78.3509 44.394 78.2751 44.3334 78.1993 44.2727C78.1083 44.2273 78.0173 44.1666 77.9263 44.1363C77.8353 44.1045 77.7443 44.0757 77.6533 44.0439C77.3499 43.9832 77.0466 44.0136 76.7736 44.1363C76.5916 44.2121 76.4248 44.3182 76.2731 44.4698C76.0001 44.7411 75.8333 45.1366 75.8333 45.5307C75.8333 45.7429 75.8788 45.9399 75.9546 46.1218C76.0304 46.3037 76.1366 46.4704 76.2731 46.6068C76.5613 46.8933 76.9404 47.0615 77.3499 47.0615C77.7594 47.0615 78.1386 46.8948 78.4268 46.6068C78.5633 46.4704 78.6694 46.3037 78.7453 46.1218C78.8211 45.9399 78.8666 45.7429 78.8666 45.5307C78.8666 45.1366 78.6998 44.7411 78.4268 44.4698Z" fill="#384550"/>
<path d="M2.5935 44.4697C2.16883 44.0453 1.5015 43.9089 0.940333 44.1363C0.758333 44.2121 0.5915 44.3182 0.439833 44.4697C0.166833 44.741 0 45.1366 0 45.5307C0 45.7429 0.0455 45.9399 0.121333 46.1218C0.197167 46.3037 0.303333 46.4704 0.439833 46.6068C0.5915 46.7583 0.758333 46.8644 0.940333 46.9402C1.12233 47.016 1.3195 47.0615 1.51667 47.0615C1.92617 47.0615 2.30533 46.8948 2.5935 46.6068C2.73 46.4704 2.83617 46.3037 2.912 46.1218C2.98783 45.9399 3.03333 45.7429 3.03333 45.5307C3.03333 45.1366 2.8665 44.741 2.5935 44.4697Z" fill="#384550"/>
<path d="M8.66015 44.4697C8.50848 44.3182 8.34165 44.2121 8.15965 44.1363C7.59848 43.909 6.93115 44.0438 6.50648 44.4697C6.23348 44.741 6.06665 45.1366 6.06665 45.5307C6.06665 45.7429 6.11215 45.9399 6.18798 46.1218C6.26382 46.3037 6.36998 46.4704 6.50648 46.6068C6.79465 46.8933 7.17382 47.0615 7.58332 47.0615C7.78048 47.0615 7.97765 47.016 8.15965 46.9402C8.34165 46.8645 8.50848 46.7584 8.66015 46.6068C8.79665 46.4704 8.90282 46.3037 8.97865 46.1218C9.05448 45.9399 9.09998 45.7429 9.09998 45.5307C9.09998 45.1366 8.93315 44.741 8.66015 44.4697Z" fill="#384550"/>
<path d="M14.7268 44.4697C14.651 44.394 14.5751 44.3333 14.4841 44.2727C14.4083 44.2272 14.3173 44.1666 14.2263 44.1363C14.1353 44.1045 14.0443 44.0757 13.9381 44.0439C13.7561 44.0135 13.5438 44.0135 13.3466 44.0439C13.2556 44.0757 13.1646 44.1045 13.0736 44.1363C12.9826 44.1666 12.8916 44.2272 12.8006 44.2727C12.7248 44.3333 12.649 44.394 12.5731 44.4697C12.3001 44.741 12.1333 45.1366 12.1333 45.5307C12.1333 45.7429 12.1636 45.9399 12.2546 46.1218C12.3305 46.3037 12.4366 46.4704 12.5731 46.6068C12.7248 46.7584 12.8916 46.8645 13.0736 46.9402C13.2556 47.016 13.4528 47.0615 13.65 47.0615C13.8471 47.0615 14.0443 47.016 14.2263 46.9402C14.4083 46.8645 14.5751 46.7584 14.7268 46.6068C14.8633 46.4704 14.9695 46.3037 15.0453 46.1218C15.1211 45.9399 15.1666 45.7429 15.1666 45.5307C15.1666 45.1366 14.9998 44.741 14.7268 44.4697Z" fill="#384550"/>
<path d="M21.112 44.9547C21.0361 44.7729 20.93 44.6061 20.7935 44.4697C20.3688 44.0453 19.7015 43.9089 19.1403 44.1363C18.9583 44.2121 18.7915 44.3182 18.6398 44.4697C18.3668 44.741 18.2 45.1366 18.2 45.5307C18.2 45.7429 18.2455 45.9399 18.3213 46.1218C18.3971 46.3037 18.5033 46.4704 18.6398 46.6068C18.7915 46.7583 18.9583 46.8644 19.1403 46.9402C19.3223 47.016 19.5195 47.0615 19.7166 47.0615C20.1261 47.0615 20.5053 46.8948 20.7935 46.6068C20.93 46.4704 21.0361 46.3037 21.112 46.1218C21.1878 45.9399 21.2333 45.7429 21.2333 45.5307C21.2333 45.3336 21.1878 45.1366 21.112 44.9547Z" fill="#384550"/>
</svg>
