<svg width="52" height="50" viewBox="0 0 52 50" fill="none" xmlns="http://www.w3.org/2000/svg">
<path fill-rule="evenodd" clip-rule="evenodd" d="M5.95242 24.9999C5.95242 13.8228 15.0133 4.76189 26.1904 4.76189C37.3675 4.76189 46.4285 13.8228 46.4285 24.9999C46.4285 36.1771 37.3675 45.238 26.1904 45.238C22.209 45.238 18.503 44.0909 15.3761 42.1097C14.7942 41.7411 14.0811 41.6425 13.421 41.8394L6.56592 43.8854L9.14696 37.8459C9.45203 37.1321 9.38996 36.3144 8.98063 35.6549C7.06118 32.5618 5.95242 28.914 5.95242 24.9999ZM26.1904 0C12.3834 0 1.19052 11.1929 1.19052 24.9999C1.19052 29.3764 2.31705 33.4959 4.29678 37.0778L0.191598 46.6832C-0.17131 47.5325 -0.0104489 48.5149 0.604335 49.2039C1.21912 49.8932 2.17695 50.1647 3.06188 49.9004L13.7748 46.7035C17.4344 48.8011 21.6754 49.9999 26.1904 49.9999C39.9975 49.9999 51.1904 38.8071 51.1904 24.9999C51.1904 11.1929 39.9975 0 26.1904 0ZM31.6487 30.1961L28.5197 32.4002C27.0542 31.5654 25.434 30.4002 23.8088 28.7749C22.1192 27.0854 20.8667 25.3411 19.9431 23.7411L21.9316 22.0533C22.785 21.329 23.0185 20.1079 22.4928 19.1197L19.9591 14.3578C19.6179 13.7166 19.0027 13.2662 18.2884 13.1346C17.5741 13.003 16.8388 13.2047 16.2916 13.6823L15.5403 14.3379C13.7339 15.9146 12.6655 18.5054 13.551 21.1288C14.469 23.8483 16.4281 28.1285 20.4417 32.1421C24.7597 36.4602 29.1459 38.1606 31.7109 38.8211C33.7775 39.353 35.7333 38.6399 37.1114 37.5171L38.5197 36.3694C39.1221 35.8787 39.4471 35.1247 39.3904 34.3497C39.3335 33.5747 38.9021 32.8761 38.2344 32.4783L34.2385 30.0973C33.4314 29.6166 32.4171 29.6552 31.6487 30.1961Z" fill="#F0A65B"/>
</svg>
